<mxfile host="65bd71144e" pages="2" scale="1.5" border="10">
    <diagram id="idhxigilsuWetFB2cpPl" name="All promises fullfilled">
        <mxGraphModel dx="1597" dy="1077" grid="1" gridSize="10" guides="1" tooltips="1" connect="1" arrows="1" fold="1" page="0" pageScale="1" pageWidth="827" pageHeight="1169" math="0" shadow="0">
            <root>
                <mxCell id="0"/>
                <mxCell id="1" parent="0"/>
                <mxCell id="N8z0Ye5YrI288PrtkeDU-1" value="" style="rounded=0;whiteSpace=wrap;html=1;fillColor=#d5e8d4;strokeColor=#82b366;" parent="1" vertex="1">
                    <mxGeometry x="70" y="370" width="450" height="30" as="geometry"/>
                </mxCell>
                <mxCell id="N8z0Ye5YrI288PrtkeDU-2" value="" style="rounded=0;whiteSpace=wrap;html=1;fillColor=#d5e8d4;strokeColor=#82b366;" parent="1" vertex="1">
                    <mxGeometry x="70" y="420" width="300" height="30" as="geometry"/>
                </mxCell>
                <mxCell id="N8z0Ye5YrI288PrtkeDU-3" value="Promise.all()" style="text;strokeColor=none;fillColor=none;html=1;fontSize=28;fontStyle=1;verticalAlign=middle;align=center;fontColor=#333333;" parent="1" vertex="1">
                    <mxGeometry x="210" y="244" width="230" height="70" as="geometry"/>
                </mxCell>
                <mxCell id="N8z0Ye5YrI288PrtkeDU-5" value="" style="endArrow=classic;html=1;" parent="1" edge="1">
                    <mxGeometry width="50" height="50" relative="1" as="geometry">
                        <mxPoint x="60" y="560" as="sourcePoint"/>
                        <mxPoint x="600" y="560" as="targetPoint"/>
                    </mxGeometry>
                </mxCell>
                <mxCell id="N8z0Ye5YrI288PrtkeDU-7" value="Time" style="text;html=1;strokeColor=none;fillColor=none;align=center;verticalAlign=middle;whiteSpace=wrap;rounded=0;" parent="1" vertex="1">
                    <mxGeometry x="560" y="565" width="40" height="20" as="geometry"/>
                </mxCell>
                <mxCell id="N8z0Ye5YrI288PrtkeDU-9" value="" style="endArrow=none;html=1;" parent="1" edge="1">
                    <mxGeometry width="50" height="50" relative="1" as="geometry">
                        <mxPoint x="60" y="470" as="sourcePoint"/>
                        <mxPoint x="600" y="470" as="targetPoint"/>
                    </mxGeometry>
                </mxCell>
                <mxCell id="N8z0Ye5YrI288PrtkeDU-12" value="" style="rounded=0;whiteSpace=wrap;html=1;fillColor=#dae8fc;strokeColor=#6c8ebf;" parent="1" vertex="1">
                    <mxGeometry x="70" y="370" width="330" height="30" as="geometry"/>
                </mxCell>
                <mxCell id="N8z0Ye5YrI288PrtkeDU-13" value="Pending..." style="text;html=1;strokeColor=none;fillColor=none;align=center;verticalAlign=middle;whiteSpace=wrap;rounded=0;fontColor=#004C99;" parent="1" vertex="1">
                    <mxGeometry x="195" y="375" width="80" height="20" as="geometry"/>
                </mxCell>
                <mxCell id="N8z0Ye5YrI288PrtkeDU-14" value="" style="rounded=0;whiteSpace=wrap;html=1;fillColor=#dae8fc;strokeColor=#6c8ebf;" parent="1" vertex="1">
                    <mxGeometry x="70" y="420" width="180" height="30" as="geometry"/>
                </mxCell>
                <mxCell id="N8z0Ye5YrI288PrtkeDU-15" value="Pending..." style="text;html=1;strokeColor=none;fillColor=none;align=center;verticalAlign=middle;whiteSpace=wrap;rounded=0;fontColor=#004C99;" parent="1" vertex="1">
                    <mxGeometry x="120" y="425" width="80" height="20" as="geometry"/>
                </mxCell>
                <mxCell id="N8z0Ye5YrI288PrtkeDU-16" value="Fulfilled: value_2" style="text;html=1;strokeColor=none;fillColor=none;align=center;verticalAlign=middle;whiteSpace=wrap;rounded=0;fontColor=#336600;" parent="1" vertex="1">
                    <mxGeometry x="245" y="425" width="130" height="20" as="geometry"/>
                </mxCell>
                <mxCell id="N8z0Ye5YrI288PrtkeDU-17" value="Fulfilled: value_1" style="text;html=1;strokeColor=none;fillColor=none;align=center;verticalAlign=middle;whiteSpace=wrap;rounded=0;fontColor=#336600;" parent="1" vertex="1">
                    <mxGeometry x="393" y="375" width="130" height="20" as="geometry"/>
                </mxCell>
                <mxCell id="N8z0Ye5YrI288PrtkeDU-18" value="" style="rounded=0;whiteSpace=wrap;html=1;fillColor=#d5e8d4;strokeColor=#82b366;" parent="1" vertex="1">
                    <mxGeometry x="70" y="500" width="510" height="30" as="geometry"/>
                </mxCell>
                <mxCell id="N8z0Ye5YrI288PrtkeDU-19" value="" style="rounded=0;whiteSpace=wrap;html=1;fillColor=#dae8fc;strokeColor=#6c8ebf;" parent="1" vertex="1">
                    <mxGeometry x="70" y="500" width="330" height="30" as="geometry"/>
                </mxCell>
                <mxCell id="N8z0Ye5YrI288PrtkeDU-20" value="Pending..." style="text;html=1;strokeColor=none;fillColor=none;align=center;verticalAlign=middle;whiteSpace=wrap;rounded=0;fontColor=#004C99;" parent="1" vertex="1">
                    <mxGeometry x="195" y="505" width="80" height="20" as="geometry"/>
                </mxCell>
                <mxCell id="N8z0Ye5YrI288PrtkeDU-21" value="Fulfilled: [value_1, value_2]" style="text;html=1;strokeColor=none;fillColor=none;align=center;verticalAlign=middle;whiteSpace=wrap;rounded=0;fontColor=#336600;" parent="1" vertex="1">
                    <mxGeometry x="410" y="505" width="160" height="20" as="geometry"/>
                </mxCell>
                <mxCell id="N8z0Ye5YrI288PrtkeDU-23" value="" style="endArrow=none;dashed=1;html=1;fontSize=16;fontColor=#336600;" parent="1" edge="1">
                    <mxGeometry width="50" height="50" relative="1" as="geometry">
                        <mxPoint x="400" y="540" as="sourcePoint"/>
                        <mxPoint x="400" y="360" as="targetPoint"/>
                    </mxGeometry>
                </mxCell>
                <mxCell id="-S_mJhH61JFIsjPQwXrV-2" value="" style="rounded=1;whiteSpace=wrap;html=1;labelBackgroundColor=#ffffff;fontFamily=Courier New;fontSize=23;fontColor=#666666;align=left;" parent="1" vertex="1">
                    <mxGeometry x="75" y="357" width="65" height="20" as="geometry"/>
                </mxCell>
                <mxCell id="N8z0Ye5YrI288PrtkeDU-10" value="promise_1" style="text;html=1;strokeColor=none;fillColor=none;align=center;verticalAlign=middle;whiteSpace=wrap;rounded=0;fontSize=10;fontFamily=Courier New;" parent="1" vertex="1">
                    <mxGeometry x="81" y="357" width="52" height="20" as="geometry"/>
                </mxCell>
                <mxCell id="-S_mJhH61JFIsjPQwXrV-7" value="" style="rounded=1;whiteSpace=wrap;html=1;labelBackgroundColor=#ffffff;fontFamily=Courier New;fontSize=23;fontColor=#666666;align=left;" parent="1" vertex="1">
                    <mxGeometry x="73" y="485.5" width="217" height="20" as="geometry"/>
                </mxCell>
                <mxCell id="-S_mJhH61JFIsjPQwXrV-8" value="Promise.all([promise_1, promise_2])" style="text;html=1;strokeColor=none;fillColor=none;align=center;verticalAlign=middle;whiteSpace=wrap;rounded=0;fontSize=10;fontFamily=Courier New;" parent="1" vertex="1">
                    <mxGeometry x="75" y="485.5" width="215" height="20" as="geometry"/>
                </mxCell>
                <mxCell id="-S_mJhH61JFIsjPQwXrV-9" value="" style="rounded=1;whiteSpace=wrap;html=1;labelBackgroundColor=#ffffff;fontFamily=Courier New;fontSize=23;fontColor=#666666;align=left;" parent="1" vertex="1">
                    <mxGeometry x="74.5" y="406" width="65" height="20" as="geometry"/>
                </mxCell>
                <mxCell id="-S_mJhH61JFIsjPQwXrV-10" value="promise_2" style="text;html=1;strokeColor=none;fillColor=none;align=center;verticalAlign=middle;whiteSpace=wrap;rounded=0;fontSize=10;fontFamily=Courier New;" parent="1" vertex="1">
                    <mxGeometry x="80.5" y="406" width="52" height="20" as="geometry"/>
                </mxCell>
                <mxCell id="-S_mJhH61JFIsjPQwXrV-12" value="all promises are fullfilled" style="text;strokeColor=none;fillColor=none;html=1;fontSize=20;fontStyle=3;verticalAlign=middle;align=center;fontColor=#666666;" parent="1" vertex="1">
                    <mxGeometry x="296" y="277" width="230" height="70" as="geometry"/>
                </mxCell>
                <mxCell id="7-jWD6CF5Lc-jfGjgNCY-1" value="" style="endArrow=none;dashed=1;html=1;" parent="1" edge="1">
                    <mxGeometry width="50" height="50" relative="1" as="geometry">
                        <mxPoint x="250" y="480" as="sourcePoint"/>
                        <mxPoint x="250" y="410" as="targetPoint"/>
                    </mxGeometry>
                </mxCell>
                <mxCell id="7-jWD6CF5Lc-jfGjgNCY-2" value="" style="endArrow=none;dashed=1;html=1;" parent="1" edge="1">
                    <mxGeometry width="50" height="50" relative="1" as="geometry">
                        <mxPoint x="250" y="480" as="sourcePoint"/>
                        <mxPoint x="400" y="480" as="targetPoint"/>
                    </mxGeometry>
                </mxCell>
            </root>
        </mxGraphModel>
    </diagram>
    <diagram name="One promise rejects" id="05dCHv4usbjD3H7Q2Go7">
        <mxGraphModel dx="1183" dy="798" grid="1" gridSize="10" guides="1" tooltips="1" connect="1" arrows="1" fold="1" page="0" pageScale="1" pageWidth="827" pageHeight="1169" math="0" shadow="0">
            <root>
                <mxCell id="Uot6-I3UawnojIUIg4Ep-0"/>
                <mxCell id="Uot6-I3UawnojIUIg4Ep-1" parent="Uot6-I3UawnojIUIg4Ep-0"/>
                <mxCell id="Uot6-I3UawnojIUIg4Ep-2" value="" style="rounded=0;whiteSpace=wrap;html=1;fillColor=#d5e8d4;strokeColor=#82b366;" parent="Uot6-I3UawnojIUIg4Ep-1" vertex="1">
                    <mxGeometry x="70" y="370" width="450" height="30" as="geometry"/>
                </mxCell>
                <mxCell id="Uot6-I3UawnojIUIg4Ep-3" value="" style="rounded=0;whiteSpace=wrap;html=1;fillColor=#f8cecc;strokeColor=#b85450;" parent="Uot6-I3UawnojIUIg4Ep-1" vertex="1">
                    <mxGeometry x="70" y="420" width="300" height="30" as="geometry"/>
                </mxCell>
                <mxCell id="Uot6-I3UawnojIUIg4Ep-4" value="Promise.all()" style="text;strokeColor=none;fillColor=none;html=1;fontSize=28;fontStyle=1;verticalAlign=middle;align=center;fontColor=#333333;" parent="Uot6-I3UawnojIUIg4Ep-1" vertex="1">
                    <mxGeometry x="210" y="239" width="230" height="70" as="geometry"/>
                </mxCell>
                <mxCell id="Uot6-I3UawnojIUIg4Ep-5" value="" style="endArrow=classic;html=1;" parent="Uot6-I3UawnojIUIg4Ep-1" edge="1">
                    <mxGeometry width="50" height="50" relative="1" as="geometry">
                        <mxPoint x="60" y="560" as="sourcePoint"/>
                        <mxPoint x="600" y="560" as="targetPoint"/>
                    </mxGeometry>
                </mxCell>
                <mxCell id="Uot6-I3UawnojIUIg4Ep-7" value="Time" style="text;html=1;strokeColor=none;fillColor=none;align=center;verticalAlign=middle;whiteSpace=wrap;rounded=0;" parent="Uot6-I3UawnojIUIg4Ep-1" vertex="1">
                    <mxGeometry x="560" y="565" width="40" height="20" as="geometry"/>
                </mxCell>
                <mxCell id="Uot6-I3UawnojIUIg4Ep-8" value="" style="endArrow=none;html=1;" parent="Uot6-I3UawnojIUIg4Ep-1" edge="1">
                    <mxGeometry width="50" height="50" relative="1" as="geometry">
                        <mxPoint x="60" y="470" as="sourcePoint"/>
                        <mxPoint x="600" y="470" as="targetPoint"/>
                    </mxGeometry>
                </mxCell>
                <mxCell id="Uot6-I3UawnojIUIg4Ep-9" value="" style="rounded=0;whiteSpace=wrap;html=1;fillColor=#dae8fc;strokeColor=#6c8ebf;" parent="Uot6-I3UawnojIUIg4Ep-1" vertex="1">
                    <mxGeometry x="70" y="370" width="330" height="30" as="geometry"/>
                </mxCell>
                <mxCell id="Uot6-I3UawnojIUIg4Ep-10" value="Pending..." style="text;html=1;strokeColor=none;fillColor=none;align=center;verticalAlign=middle;whiteSpace=wrap;rounded=0;fontColor=#004C99;" parent="Uot6-I3UawnojIUIg4Ep-1" vertex="1">
                    <mxGeometry x="195" y="375" width="80" height="20" as="geometry"/>
                </mxCell>
                <mxCell id="Uot6-I3UawnojIUIg4Ep-11" value="" style="rounded=0;whiteSpace=wrap;html=1;fillColor=#dae8fc;strokeColor=#6c8ebf;" parent="Uot6-I3UawnojIUIg4Ep-1" vertex="1">
                    <mxGeometry x="70" y="420" width="180" height="30" as="geometry"/>
                </mxCell>
                <mxCell id="Uot6-I3UawnojIUIg4Ep-12" value="Pending..." style="text;html=1;strokeColor=none;fillColor=none;align=center;verticalAlign=middle;whiteSpace=wrap;rounded=0;fontColor=#004C99;" parent="Uot6-I3UawnojIUIg4Ep-1" vertex="1">
                    <mxGeometry x="120" y="425" width="80" height="20" as="geometry"/>
                </mxCell>
                <mxCell id="Uot6-I3UawnojIUIg4Ep-13" value="Rejected: reason_2" style="text;html=1;strokeColor=none;fillColor=none;align=center;verticalAlign=middle;whiteSpace=wrap;rounded=0;fontColor=#990000;" parent="Uot6-I3UawnojIUIg4Ep-1" vertex="1">
                    <mxGeometry x="245" y="424" width="130" height="20" as="geometry"/>
                </mxCell>
                <mxCell id="Uot6-I3UawnojIUIg4Ep-14" value="Fulfilled: value_1" style="text;html=1;strokeColor=none;fillColor=none;align=center;verticalAlign=middle;whiteSpace=wrap;rounded=0;fontColor=#336600;" parent="Uot6-I3UawnojIUIg4Ep-1" vertex="1">
                    <mxGeometry x="393" y="375" width="130" height="20" as="geometry"/>
                </mxCell>
                <mxCell id="Uot6-I3UawnojIUIg4Ep-15" value="" style="rounded=0;whiteSpace=wrap;html=1;fillColor=#f8cecc;strokeColor=#b85450;" parent="Uot6-I3UawnojIUIg4Ep-1" vertex="1">
                    <mxGeometry x="70" y="500" width="300" height="30" as="geometry"/>
                </mxCell>
                <mxCell id="Uot6-I3UawnojIUIg4Ep-16" value="" style="rounded=0;whiteSpace=wrap;html=1;fillColor=#dae8fc;strokeColor=#6c8ebf;" parent="Uot6-I3UawnojIUIg4Ep-1" vertex="1">
                    <mxGeometry x="70" y="500" width="180" height="30" as="geometry"/>
                </mxCell>
                <mxCell id="Uot6-I3UawnojIUIg4Ep-17" value="Pending..." style="text;html=1;strokeColor=none;fillColor=none;align=center;verticalAlign=middle;whiteSpace=wrap;rounded=0;fontColor=#004C99;" parent="Uot6-I3UawnojIUIg4Ep-1" vertex="1">
                    <mxGeometry x="120" y="505.5" width="80" height="20" as="geometry"/>
                </mxCell>
                <mxCell id="Uot6-I3UawnojIUIg4Ep-19" value="" style="endArrow=none;dashed=1;html=1;fontSize=16;fontColor=#336600;" parent="Uot6-I3UawnojIUIg4Ep-1" edge="1">
                    <mxGeometry width="50" height="50" relative="1" as="geometry">
                        <mxPoint x="250" y="540" as="sourcePoint"/>
                        <mxPoint x="250" y="410" as="targetPoint"/>
                    </mxGeometry>
                </mxCell>
                <mxCell id="Uot6-I3UawnojIUIg4Ep-20" value="" style="rounded=1;whiteSpace=wrap;html=1;labelBackgroundColor=#ffffff;fontFamily=Courier New;fontSize=23;fontColor=#666666;align=left;" parent="Uot6-I3UawnojIUIg4Ep-1" vertex="1">
                    <mxGeometry x="75" y="357" width="65" height="20" as="geometry"/>
                </mxCell>
                <mxCell id="Uot6-I3UawnojIUIg4Ep-21" value="promise_1" style="text;html=1;strokeColor=none;fillColor=none;align=center;verticalAlign=middle;whiteSpace=wrap;rounded=0;fontSize=10;fontFamily=Courier New;" parent="Uot6-I3UawnojIUIg4Ep-1" vertex="1">
                    <mxGeometry x="81" y="357" width="52" height="20" as="geometry"/>
                </mxCell>
                <mxCell id="Uot6-I3UawnojIUIg4Ep-22" value="" style="rounded=1;whiteSpace=wrap;html=1;labelBackgroundColor=#ffffff;fontFamily=Courier New;fontSize=23;fontColor=#666666;align=left;" parent="Uot6-I3UawnojIUIg4Ep-1" vertex="1">
                    <mxGeometry x="73" y="485.5" width="217" height="20" as="geometry"/>
                </mxCell>
                <mxCell id="Uot6-I3UawnojIUIg4Ep-23" value="Promise.all([promise_1, promise_2])" style="text;html=1;strokeColor=none;fillColor=none;align=center;verticalAlign=middle;whiteSpace=wrap;rounded=0;fontSize=10;fontFamily=Courier New;" parent="Uot6-I3UawnojIUIg4Ep-1" vertex="1">
                    <mxGeometry x="72" y="485.5" width="219" height="20" as="geometry"/>
                </mxCell>
                <mxCell id="Uot6-I3UawnojIUIg4Ep-24" value="" style="rounded=1;whiteSpace=wrap;html=1;labelBackgroundColor=#ffffff;fontFamily=Courier New;fontSize=23;fontColor=#666666;align=left;" parent="Uot6-I3UawnojIUIg4Ep-1" vertex="1">
                    <mxGeometry x="74.5" y="406" width="65" height="20" as="geometry"/>
                </mxCell>
                <mxCell id="Uot6-I3UawnojIUIg4Ep-25" value="promise_2" style="text;html=1;strokeColor=none;fillColor=none;align=center;verticalAlign=middle;whiteSpace=wrap;rounded=0;fontSize=10;fontFamily=Courier New;" parent="Uot6-I3UawnojIUIg4Ep-1" vertex="1">
                    <mxGeometry x="80.5" y="406" width="52" height="20" as="geometry"/>
                </mxCell>
                <mxCell id="Uot6-I3UawnojIUIg4Ep-26" value="one promise rejects" style="text;strokeColor=none;fillColor=none;html=1;fontSize=20;fontStyle=3;verticalAlign=middle;align=center;fontColor=#666666;" parent="Uot6-I3UawnojIUIg4Ep-1" vertex="1">
                    <mxGeometry x="296" y="272" width="230" height="70" as="geometry"/>
                </mxCell>
                <mxCell id="Uot6-I3UawnojIUIg4Ep-27" value="Rejected: reason_2" style="text;html=1;strokeColor=none;fillColor=none;align=center;verticalAlign=middle;whiteSpace=wrap;rounded=0;fontColor=#990000;" parent="Uot6-I3UawnojIUIg4Ep-1" vertex="1">
                    <mxGeometry x="245" y="505" width="130" height="20" as="geometry"/>
                </mxCell>
            </root>
        </mxGraphModel>
    </diagram>
</mxfile>